<?xml version="1.0" encoding="UTF-8"?><svg id="Capa_1" xmlns="http://www.w3.org/2000/svg" xmlns:xlink="http://www.w3.org/1999/xlink" viewBox="0 0 200 200"><defs><style>.cls-1{fill:url(#linear-gradient-2);}.cls-2{fill:url(#linear-gradient);}.cls-3{fill:#fff;}.cls-4{fill:#ef8123;}</style><linearGradient id="linear-gradient" x1="667.34" y1="1876.32" x2="865.1" y2="1876.32" gradientTransform="translate(862.29 -1745.87) rotate(45)" gradientUnits="userSpaceOnUse"><stop offset="0" stop-color="#1a5761"/><stop offset="1" stop-color="#17272d"/></linearGradient><linearGradient id="linear-gradient-2" x1="667.4" y1="1844.26" x2="865" y2="1844.26" xlink:href="#linear-gradient"/></defs><path class="cls-3" d="M198.86,100.01c0,54.59-44.26,98.86-98.86,98.86S1.13,154.59,1.13,100.01,45.4,1.14,100,1.14s98.86,44.26,98.86,98.87Z"/><path class="cls-4" d="M98.91,25.09c-2.48,2.29-4.46,4.92-5.91,7.86-1.48,2.94-2.35,6.04-2.7,9.29-.33,3.23-.07,6.38.79,9.49l48.3-16.99c-2.66-6.55-6.73-11.32-12.28-14.31-5.53-2.99-11.96-3.18-19.33-.6-3.43,1.21-6.4,2.95-8.87,5.25Z"/><path class="cls-2" d="M58.73,129.77c-.33,3.22-.07,6.4.79,9.5l48.29-16.99c-2.65-6.55-6.73-11.33-12.28-14.31-5.53-2.98-11.97-3.19-19.35-.6-3.41,1.21-6.39,2.96-8.87,5.25-2.47,2.3-4.44,4.92-5.91,7.86-1.45,2.95-2.35,6.04-2.68,9.29Z"/><path class="cls-1" d="M151.98,179.28c3.53-1.27,5.91-3.33,7.17-6.21,1.26-2.89,1.94-6.6,2.04-11.18l.53-16.85-54-58.8c-1.99-.59-3.94-1.31-5.8-2.24-4.41-2.2-8.35-5.24-11.82-9.13-3.45-3.88-6.13-8.5-8.01-13.85-1.87-5.34-2.71-10.62-2.48-15.81.21-5.17,1.35-9.99,3.41-14.47,2.06-4.46,4.94-8.39,8.61-11.78,3.69-3.4,8.05-5.98,13.11-7.76,5.5-1.94,10.67-2.71,15.54-2.36.04,0,.08,0,.12,0,4.9.38,9.32,1.66,13.27,3.84.4.23.72.55,1.11.78,3.47,2.1,6.57,4.75,9.23,8.1,2.96,3.71,5.3,8,7,12.85.24.7.51,1.45.8,2.26.28.82.52,1.69.75,2.63l-58.73,20.66c1.35,3.5,3.21,6.59,5.63,9.25,2.41,2.66,5.18,4.76,8.33,6.25,3.14,1.52,6.51,2.4,10.12,2.66,3.62.25,7.24-.24,10.86-1.53,5.34-1.89,9.54-4.74,12.55-8.59,3.01-3.82,4.95-7.71,5.84-11.65l9.85,3.33c-2.34,6.85-5.67,12.32-9.95,16.42-4.3,4.12-9.35,7.21-15.21,9.27-2.72.96-5.42,1.61-8.1,2.01l39.44,44.88.3-.1.94-67.53,11.19-3.94-3.91,101.6c-.08,2.24-.33,4.33-.65,6.35,17.19-17.78,27.82-41.97,27.82-68.65C198.87,45.39,154.6,1.13,100,1.13c-31.15,0-58.89,14.44-77.01,36.95,3.87-3.27,8.52-5.88,13.99-7.8,4.75-1.68,9.93-2.32,15.56-1.99,5.61.36,10.65,2.02,15.11,4.98l-6.01,8.59c-2.67-2.11-5.96-3.49-9.86-4.1-3.89-.62-7.76-.25-11.6,1.1-4.14,1.45-7.62,3.5-10.43,6.14-2.81,2.63-4.97,5.65-6.43,9.06-1.47,3.4-2.22,7.06-2.25,10.99-.04,3.93.66,7.91,2.08,11.96,1.41,4.02,3.34,7.54,5.83,10.53,2.48,2.99,5.3,5.37,8.55,7.11,3.21,1.76,6.75,2.79,10.6,3.1,3.84.27,7.84-.31,11.97-1.77,4.54-1.6,8.08-3.8,10.62-6.62,2.52-2.81,4.3-5.94,5.37-9.37l9.75,3.03c-1.71,4.82-4.37,9.09-7.99,12.84-.73.77-1.55,1.49-2.41,2.19,4.7-1.41,9.19-2,13.42-1.69,4.89.39,9.31,1.66,13.25,3.85,3.95,2.19,7.41,5.14,10.35,8.87,2.96,3.72,5.29,8.01,7,12.85.26.71.51,1.47.8,2.28.3.81.53,1.68.75,2.61l-58.75,20.68c1.35,3.48,3.23,6.57,5.64,9.24,2.41,2.68,5.17,4.77,8.31,6.25,3.15,1.53,6.53,2.39,10.13,2.67,3.61.26,7.23-.26,10.85-1.53,5.37-1.89,9.54-4.75,12.55-8.59,3.02-3.83,4.96-7.72,5.85-11.67l9.85,3.34c-2.35,6.84-5.67,12.31-9.96,16.43-4.28,4.13-9.36,7.2-15.2,9.26-5.25,1.86-10.45,2.63-15.6,2.35-5.16-.29-9.92-1.53-14.33-3.72-4.4-2.2-8.33-5.24-11.8-9.13-3.47-3.87-6.13-8.49-8.02-13.84-1.88-5.35-2.71-10.62-2.48-15.8.22-5.17,1.35-10.02,3.4-14.48,2.08-4.46,4.95-8.39,8.62-11.78.55-.49,1.2-.85,1.78-1.31-5.27,1.71-10.35,2.5-15.24,2.28-5.3-.24-10.17-1.45-14.61-3.61-4.47-2.19-8.39-5.23-11.82-9.13-3.41-3.9-6.06-8.53-7.94-13.87-1.9-5.37-2.71-10.64-2.49-15.8.1-2.53.44-4.99,1-7.34-6.1,12.83-9.61,27.14-9.61,42.29,0,54.6,44.26,98.87,98.87,98.87,16.46,0,31.93-4.09,45.59-11.2l-1.59-6.96c2.7-.04,5.36-.53,7.99-1.43Z"/></svg>